<mxfile host="Electron" modified="2023-10-24T16:32:42.259Z" agent="Mozilla/5.0 (X11; Linux x86_64) AppleWebKit/537.36 (KHTML, like Gecko) draw.io/21.6.8 Chrome/114.0.5735.289 Electron/25.5.0 Safari/537.36" etag="27lg77vQteoQLZpmtmFE" version="21.6.8" type="device">
  <diagram id="C5RBs43oDa-KdzZeNtuy" name="Page-1">
    <mxGraphModel dx="607" dy="366" grid="1" gridSize="10" guides="1" tooltips="1" connect="1" arrows="1" fold="1" page="1" pageScale="1" pageWidth="827" pageHeight="1169" math="0" shadow="0">
      <root>
        <mxCell id="WIyWlLk6GJQsqaUBKTNV-0" />
        <mxCell id="WIyWlLk6GJQsqaUBKTNV-1" parent="WIyWlLk6GJQsqaUBKTNV-0" />
        <mxCell id="zkfFHV4jXpPFQw0GAbJ--0" value="UserBuilder" style="swimlane;fontStyle=2;align=center;verticalAlign=top;childLayout=stackLayout;horizontal=1;startSize=26;horizontalStack=0;resizeParent=1;resizeLast=0;collapsible=1;marginBottom=0;rounded=0;shadow=0;strokeWidth=1;" parent="WIyWlLk6GJQsqaUBKTNV-1" vertex="1">
          <mxGeometry x="200" y="112" width="180" height="380" as="geometry">
            <mxRectangle x="200" y="112" width="160" height="26" as="alternateBounds" />
          </mxGeometry>
        </mxCell>
        <mxCell id="zkfFHV4jXpPFQw0GAbJ--1" value="- username: str &#xa;   - email: str    &#xa;   - password: str &#xa;   - birthday: str &#xa;   - full_name: str&#xa;   - home_address: str&#xa;   - phone_number: str&#xa;   - gender: str   &#xa;   - card_number: str&#xa;   - card_expire_month: str&#xa;   - card_expire_year: str&#xa;   - cardholder_name: str" style="text;align=left;verticalAlign=top;spacingLeft=4;spacingRight=4;overflow=hidden;rotatable=0;points=[[0,0.5],[1,0.5]];portConstraint=eastwest;" parent="zkfFHV4jXpPFQw0GAbJ--0" vertex="1">
          <mxGeometry y="26" width="180" height="174" as="geometry" />
        </mxCell>
        <mxCell id="zkfFHV4jXpPFQw0GAbJ--4" value="" style="line;html=1;strokeWidth=1;align=left;verticalAlign=middle;spacingTop=-1;spacingLeft=3;spacingRight=3;rotatable=0;labelPosition=right;points=[];portConstraint=eastwest;" parent="zkfFHV4jXpPFQw0GAbJ--0" vertex="1">
          <mxGeometry y="200" width="180" height="8" as="geometry" />
        </mxCell>
        <mxCell id="zkfFHV4jXpPFQw0GAbJ--5" value="+ __init__()    &#xa;   + full_name     &#xa;   + home_address  &#xa;   + phone_number  &#xa;   + gender        &#xa;   + card_number   &#xa;   + cardholder_name&#xa;   + card_expire_month&#xa;   + card_expire_year &#xa;   + build() " style="text;align=left;verticalAlign=top;spacingLeft=4;spacingRight=4;overflow=hidden;rotatable=0;points=[[0,0.5],[1,0.5]];portConstraint=eastwest;" parent="zkfFHV4jXpPFQw0GAbJ--0" vertex="1">
          <mxGeometry y="208" width="180" height="172" as="geometry" />
        </mxCell>
        <mxCell id="jeatNZCv7McG_EjXAFNr-1" value="User" style="swimlane;fontStyle=2;align=center;verticalAlign=top;childLayout=stackLayout;horizontal=1;startSize=26;horizontalStack=0;resizeParent=1;resizeLast=0;collapsible=1;marginBottom=0;rounded=0;shadow=0;strokeWidth=1;" vertex="1" parent="WIyWlLk6GJQsqaUBKTNV-1">
          <mxGeometry x="510" y="173" width="180" height="258" as="geometry">
            <mxRectangle x="510" y="173" width="160" height="26" as="alternateBounds" />
          </mxGeometry>
        </mxCell>
        <mxCell id="jeatNZCv7McG_EjXAFNr-2" value="- username: str &#xa;   - email: str    &#xa;   - password: str &#xa;   - birthday: str &#xa;   - full_name: str&#xa;   - home_address: str&#xa;   - phone_number: str&#xa;   - gender: str   &#xa;   - card_number: str&#xa;   - card_expire_month: str&#xa;   - card_expire_year: str&#xa;   - cardholder_name: str" style="text;align=left;verticalAlign=top;spacingLeft=4;spacingRight=4;overflow=hidden;rotatable=0;points=[[0,0.5],[1,0.5]];portConstraint=eastwest;" vertex="1" parent="jeatNZCv7McG_EjXAFNr-1">
          <mxGeometry y="26" width="180" height="174" as="geometry" />
        </mxCell>
        <mxCell id="jeatNZCv7McG_EjXAFNr-3" value="" style="line;html=1;strokeWidth=1;align=left;verticalAlign=middle;spacingTop=-1;spacingLeft=3;spacingRight=3;rotatable=0;labelPosition=right;points=[];portConstraint=eastwest;" vertex="1" parent="jeatNZCv7McG_EjXAFNr-1">
          <mxGeometry y="200" width="180" height="8" as="geometry" />
        </mxCell>
        <mxCell id="jeatNZCv7McG_EjXAFNr-4" value="+ __init__()    &#xa;+ __str__() " style="text;align=left;verticalAlign=top;spacingLeft=4;spacingRight=4;overflow=hidden;rotatable=0;points=[[0,0.5],[1,0.5]];portConstraint=eastwest;" vertex="1" parent="jeatNZCv7McG_EjXAFNr-1">
          <mxGeometry y="208" width="180" height="42" as="geometry" />
        </mxCell>
        <mxCell id="jeatNZCv7McG_EjXAFNr-0" value="" style="endArrow=classic;html=1;rounded=0;entryX=0.005;entryY=0.59;entryDx=0;entryDy=0;dashed=1;dashPattern=12 12;entryPerimeter=0;" edge="1" parent="WIyWlLk6GJQsqaUBKTNV-1" source="zkfFHV4jXpPFQw0GAbJ--0" target="jeatNZCv7McG_EjXAFNr-2">
          <mxGeometry width="50" height="50" relative="1" as="geometry">
            <mxPoint x="369.64" y="230.6199999999999" as="sourcePoint" />
            <mxPoint x="500" y="231" as="targetPoint" />
          </mxGeometry>
        </mxCell>
        <mxCell id="jeatNZCv7McG_EjXAFNr-8" value="&amp;lt;&amp;lt;create&amp;gt;&amp;gt;" style="edgeLabel;html=1;align=center;verticalAlign=middle;resizable=0;points=[];" vertex="1" connectable="0" parent="jeatNZCv7McG_EjXAFNr-0">
          <mxGeometry x="-0.0057" y="-1" relative="1" as="geometry">
            <mxPoint y="-11" as="offset" />
          </mxGeometry>
        </mxCell>
      </root>
    </mxGraphModel>
  </diagram>
</mxfile>
